<?xml version="1.0" standalone="no"?>
<!DOCTYPE svg PUBLIC "-//W3C//DTD SVG 20010904//EN"
 "http://www.w3.org/TR/2001/REC-SVG-20010904/DTD/svg10.dtd">
<svg version="1.0" xmlns="http://www.w3.org/2000/svg"
 width="548.000000pt" height="517.000000pt" viewBox="0 0 548.000000 517.000000"
 preserveAspectRatio="xMidYMid meet">

<g transform="translate(0.000000,517.000000) scale(0.100000,-0.100000)"
fill="#000000" stroke="none">
<path d="M2915 4949 c-16 -6 -81 -14 -143 -19 -93 -7 -120 -13 -155 -33 -125
-75 -278 -275 -348 -456 -22 -59 -53 -133 -69 -166 -33 -70 -70 -162 -70 -175
0 -5 6 -7 13 -4 23 9 87 -58 97 -101 17 -75 13 -98 -23 -122 -18 -13 -39 -23
-45 -23 -18 0 -15 -56 4 -74 8 -9 25 -16 37 -16 18 0 25 10 39 58 17 60 32
133 43 217 7 53 35 115 67 149 23 25 83 124 103 172 8 19 20 34 28 34 8 0 18
11 21 24 3 14 27 42 52 63 25 21 68 59 95 84 46 44 81 59 135 59 13 0 24 4 24
9 0 4 -11 6 -25 3 -14 -2 -25 0 -25 6 0 14 47 21 59 9 5 -5 22 -9 38 -9 15 0
37 -8 47 -17 11 -9 16 -10 12 -3 -16 27 35 1 75 -39 9 -9 33 -25 52 -34 20 -9
46 -31 58 -49 16 -24 28 -32 42 -28 16 4 19 2 14 -12 -4 -9 -3 -15 2 -12 14 9
54 -41 47 -59 -3 -9 -3 -22 1 -28 4 -6 8 -27 9 -47 1 -19 3 -39 5 -45 2 -5 0
-36 -4 -68 -6 -51 -4 -63 20 -110 15 -28 29 -55 31 -58 2 -4 -23 -5 -55 -3
-86 6 -152 -5 -172 -28 -9 -11 -30 -34 -47 -52 -41 -42 -49 -59 -72 -143 -20
-74 -28 -176 -15 -196 4 -6 9 -21 11 -32 4 -26 47 -66 64 -60 7 3 20 1 28 -5
12 -7 12 -12 3 -21 -9 -9 -16 -9 -26 -1 -7 6 -31 14 -53 18 -34 5 -44 2 -71
-21 -34 -30 -34 -57 0 -73 20 -10 19 -11 -13 -12 -30 -1 -24 -5 35 -20 125
-33 129 -38 20 -34 -55 3 -111 7 -125 10 -14 3 -77 7 -141 10 -105 5 -117 4
-123 -12 -5 -14 11 -34 66 -85 40 -38 78 -68 83 -69 12 0 75 -55 75 -65 0 -4
-11 -5 -25 -3 -14 3 -25 2 -25 -1 0 -15 86 -61 126 -67 25 -3 47 -10 50 -15 3
-5 23 -9 46 -9 39 0 40 -1 34 -27 -4 -16 -14 -33 -22 -39 -18 -14 -18 -24 1
-24 8 0 15 -5 15 -10 0 -15 93 36 122 68 42 46 68 89 68 114 0 26 64 163 81
174 8 5 10 -3 7 -26 -5 -30 -4 -31 9 -15 26 37 11 70 -86 185 -76 91 -93 118
-83 138 5 9 10 38 10 64 0 48 25 97 50 98 17 0 15 10 -5 26 -17 13 -17 13 2
14 11 0 32 -6 47 -14 20 -11 28 -11 32 -3 3 7 5 6 5 -3 2 -19 68 -50 108 -50
44 0 58 -23 58 -96 1 -35 4 -66 8 -70 15 -16 -2 -117 -22 -134 -23 -19 -61
-83 -61 -101 0 -49 -34 -139 -71 -188 -21 -28 -50 -73 -64 -100 -47 -93 -99
-159 -110 -141 -10 17 -25 11 -25 -10 0 -15 -6 -19 -22 -17 -16 1 -23 -3 -23
-15 0 -10 -5 -22 -12 -29 -12 -12 -104 -35 -188 -48 -27 -5 -40 -9 -28 -10 30
-2 56 -30 49 -54 -4 -17 -1 -18 25 -13 19 4 28 2 24 -4 -6 -10 39 -7 103 6 15
3 22 0 21 -8 -3 -27 1 -38 16 -38 20 0 39 -36 24 -46 -8 -5 -6 -10 5 -16 9 -5
16 -16 16 -23 0 -8 6 -14 13 -13 18 4 12 -80 -8 -101 -18 -21 -20 -35 -2 -25
6 4 2 -4 -10 -17 -12 -13 -22 -28 -22 -34 1 -5 -37 -35 -83 -67 -111 -75 -488
-308 -499 -308 -12 0 -22 46 -16 73 3 12 15 58 27 102 22 78 25 155 17 378 -1
23 4 98 11 167 19 185 9 238 -67 375 -78 140 -112 242 -118 363 -5 86 -7 92
-27 92 -12 0 -29 6 -38 13 -19 14 -70 146 -88 225 -7 28 -16 55 -21 58 -5 3
-9 17 -9 31 0 15 -3 24 -6 20 -3 -3 -8 -83 -10 -179 -3 -113 -12 -213 -25
-288 -11 -63 -22 -160 -24 -215 -5 -144 -22 -309 -32 -312 -5 -2 -7 -34 -5
-71 4 -69 -28 -263 -47 -286 -5 -6 -25 -13 -43 -14 -67 -5 -177 -96 -243 -201
-74 -118 -176 -338 -196 -426 -12 -49 -34 -139 -50 -200 -22 -89 -29 -139 -33
-262 -5 -138 -7 -156 -29 -190 -13 -21 -29 -60 -36 -87 -7 -27 -27 -77 -45
-112 -19 -34 -39 -87 -46 -116 -15 -62 -43 -118 -70 -143 -11 -10 -20 -24 -20
-32 0 -8 -9 -34 -20 -59 -12 -24 -18 -49 -15 -54 3 -5 -5 -16 -19 -25 -14 -9
-23 -22 -20 -30 3 -7 0 -16 -5 -20 -6 -3 -9 -11 -5 -16 3 -5 1 -16 -6 -24 -8
-10 -8 -19 -1 -33 6 -11 7 -22 4 -26 -3 -3 -1 -6 5 -6 19 0 14 -24 -7 -40 -11
-7 -17 -18 -14 -24 10 -16 13 -56 4 -56 -5 0 -11 -14 -15 -32 -5 -24 -9 -29
-18 -20 -9 9 -9 15 0 24 7 7 12 23 12 38 -1 24 -1 24 -15 6 -8 -11 -15 -14
-15 -7 0 7 -4 9 -10 6 -5 -3 -21 6 -35 22 -15 16 -25 22 -24 13 1 -8 -1 -23
-5 -32 -4 -9 -2 -27 5 -40 l12 -23 -24 21 c-28 25 -63 44 -80 44 -10 0 -10 -3
-2 -11 7 -7 9 -24 6 -39 -5 -26 -1 -29 97 -71 85 -36 116 -56 177 -113 87 -81
110 -83 27 -2 l-57 57 17 57 c10 31 23 75 29 97 11 36 17 41 72 60 33 12 75
29 93 39 35 18 81 14 52 -4 -12 -7 -9 -10 12 -10 29 0 79 -17 88 -29 9 -12
131 -42 212 -51 64 -7 99 -20 213 -75 76 -36 135 -69 131 -72 -3 -4 25 -20 64
-36 38 -16 70 -33 70 -38 0 -5 9 -9 19 -9 11 0 21 -3 23 -7 4 -10 104 -55 181
-82 51 -19 81 -21 260 -21 l203 0 46 48 c25 26 71 93 102 148 49 87 61 102
100 121 24 12 47 30 50 40 25 86 55 245 60 323 10 137 59 370 100 472 20 49
51 136 71 195 46 140 89 217 239 431 201 287 321 383 476 384 64 1 69 2 50 15
-11 8 -19 20 -18 26 1 7 -7 41 -19 77 -43 136 -67 236 -58 250 3 4 1 10 -4 12
-4 1 -11 14 -15 28 -6 19 -5 21 3 10 6 -8 11 -10 11 -5 -1 16 -37 172 -43 181
-8 13 -25 177 -37 349 -6 83 -17 192 -25 242 -8 51 -15 148 -15 215 0 68 -7
164 -16 213 -8 50 -18 108 -21 130 -7 53 -102 377 -114 390 -5 5 -9 18 -9 29
0 28 -92 211 -143 284 -52 75 -146 174 -202 212 -137 94 -380 161 -470 129z
m455 -1029 c0 -19 -25 -21 -61 -6 l-34 15 48 1 c26 0 47 -5 47 -10z m-220 -85
c0 -26 -14 -33 -25 -15 -9 14 1 40 15 40 5 0 10 -11 10 -25z m-360 -529 c37
-14 77 -22 87 -20 12 3 28 -2 38 -13 13 -13 20 -14 23 -5 5 17 31 15 38 -3 5
-13 9 -13 21 -3 12 10 17 9 27 -5 10 -12 15 -14 24 -5 9 9 12 9 12 -1 0 -11 3
-11 15 -1 12 10 15 10 15 -3 0 -19 -35 -41 -70 -44 -111 -10 -239 -6 -270 9
-19 8 -53 24 -75 34 -48 21 -75 50 -75 77 0 18 5 19 61 13 34 -3 92 -17 129
-30z m255 16 c-3 -3 -11 0 -18 7 -9 10 -8 11 6 5 10 -3 15 -9 12 -12z m300
-111 c-3 -12 -10 -21 -15 -21 -5 0 -4 11 2 25 13 29 23 26 13 -4z m-485 -41
c24 -8 24 -8 -5 -8 -16 0 -39 3 -50 8 -18 8 -18 9 5 8 14 0 36 -4 50 -8z m470
5 c0 -13 -30 -63 -46 -76 -19 -15 -18 -13 11 44 16 32 35 49 35 32z m-170
-730 c0 -2 -24 -16 -52 -31 l-53 -26 35 31 c30 26 70 41 70 26z m289 -233
c-13 -10 -53 -38 -89 -62 -88 -59 -314 -230 -489 -370 -208 -166 -213 -170
-228 -170 -33 0 -1 34 107 115 36 27 119 94 184 148 114 95 233 178 431 300
89 55 130 74 84 39z m-1659 -372 c-6 -12 -14 -19 -17 -17 -2 3 1 15 7 27 6 12
14 19 17 17 2 -3 -1 -15 -7 -27z m-20 -58 c0 -4 -10 -13 -22 -21 -23 -14 -23
-14 -4 8 20 22 26 25 26 13z"/>
<path d="M2475 4097 c-18 -14 -15 -16 40 -32 91 -27 93 -27 70 -32 -64 -13
-145 -71 -145 -104 0 -25 14 -31 46 -19 16 6 30 7 33 2 3 -5 21 -17 39 -26 21
-11 30 -21 25 -29 -4 -7 0 -7 10 2 15 11 17 11 17 -1 0 -8 18 -21 40 -28 23
-8 44 -20 49 -27 16 -30 96 23 86 57 -3 9 4 19 18 25 33 15 31 37 -8 80 -19
22 -35 42 -35 45 0 3 12 6 26 6 34 2 39 10 26 38 -15 34 -63 46 -202 52 -92 5
-119 3 -135 -9z m95 -167 c0 -18 -3 -19 -20 -10 -22 12 -18 30 6 30 8 0 14 -9
14 -20z"/>
<path d="M2116 4044 c-19 -19 -20 -60 -2 -134 13 -54 14 -54 24 -28 6 15 17
57 23 94 9 55 9 68 -2 75 -19 12 -25 11 -43 -7z"/>
<path d="M2230 3720 c0 -5 5 -10 10 -10 6 0 10 5 10 10 0 6 -4 10 -10 10 -5 0
-10 -4 -10 -10z"/>
<path d="M2662 3605 c-24 -13 -76 -51 -116 -85 -92 -76 -106 -110 -82 -194 9
-31 19 -56 22 -56 2 0 4 28 3 63 -2 76 8 97 66 137 61 42 158 136 154 149 -3
6 -21 1 -47 -14z"/>
<path d="M2240 3600 c0 -5 5 -10 10 -10 6 0 10 5 10 10 0 6 -4 10 -10 10 -5 0
-10 -4 -10 -10z"/>
<path d="M1992 2955 c0 -16 2 -22 5 -12 2 9 2 23 0 30 -3 6 -5 -1 -5 -18z"/>
<path d="M4040 2040 c0 -5 5 -10 11 -10 5 0 7 5 4 10 -3 6 -8 10 -11 10 -2 0
-4 -4 -4 -10z"/>
<path d="M4091 2041 c-7 -5 -11 -13 -7 -19 7 -12 -18 -23 -37 -17 -6 3 -18 -4
-25 -15 -10 -17 -10 -21 0 -19 23 4 47 -12 41 -28 -3 -8 0 -25 7 -38 12 -23
14 -23 26 -7 12 16 13 15 14 -5 0 -14 6 -23 15 -23 8 0 15 -4 15 -10 0 -5 -4
-10 -9 -10 -5 0 -17 -15 -26 -32 -15 -30 -15 -34 1 -45 12 -9 14 -16 7 -25 -5
-7 -10 -23 -11 -36 -1 -19 3 -22 20 -16 l21 6 -20 -34 c-15 -26 -20 -50 -19
-94 2 -38 -3 -67 -13 -82 -12 -20 -12 -25 0 -33 12 -7 12 -11 1 -18 -8 -4 -13
-11 -13 -15 2 -17 0 -17 -16 -5 -15 12 -16 12 -9 -6 18 -44 18 -56 1 -75 -13
-14 -16 -28 -11 -54 7 -38 -7 -56 -23 -29 -7 12 -10 14 -11 4 0 -8 8 -20 18
-27 9 -8 12 -14 5 -14 -8 0 -11 -13 -9 -35 1 -21 -3 -36 -10 -39 -8 -3 -11 1
-7 10 3 7 0 14 -7 14 -6 0 -8 5 -4 13 4 6 -2 3 -15 -7 -12 -11 -20 -25 -17
-31 7 -19 -24 -74 -39 -69 -15 6 -28 -23 -15 -31 6 -4 10 -13 10 -22 0 -14 -2
-14 -19 1 -11 10 -25 15 -30 11 -16 -9 -13 -28 2 -22 10 4 13 -2 9 -19 -2 -13
-7 -23 -11 -22 -18 2 -22 -4 -11 -17 10 -12 10 -19 2 -27 -7 -7 -12 -21 -12
-33 0 -16 2 -17 10 -5 5 8 10 11 10 5 0 -5 -5 -17 -11 -25 -8 -11 -12 -12 -16
-2 -2 6 -14 12 -25 12 -21 0 -20 -1 2 -20 13 -11 18 -20 13 -20 -15 0 -23 -36
-10 -49 8 -8 8 -11 -1 -11 -6 0 -16 8 -22 18 -9 14 -10 13 -4 -8 4 -14 11 -27
16 -28 5 -3 5 -9 0 -15 -5 -7 -17 -51 -27 -100 -10 -48 -22 -87 -26 -87 -17 0
-29 -65 -19 -100 12 -43 13 -40 -5 -40 -8 0 -15 -7 -15 -15 0 -8 5 -15 10 -15
6 0 10 -7 10 -15 0 -9 -6 -12 -15 -9 -18 7 -20 -7 -2 -25 10 -10 9 -14 -5 -22
-10 -5 -15 -16 -11 -24 3 -9 0 -22 -6 -29 -8 -10 -9 -16 -2 -21 6 -3 16 -16
22 -28 12 -21 11 -21 -12 -5 -24 15 -25 15 -23 -11 1 -14 3 -28 4 -31 11 -19
3 -77 -13 -89 -10 -7 -16 -20 -12 -28 5 -14 3 -14 -17 -1 -13 9 -24 25 -26 36
-2 12 -12 24 -23 27 -10 3 -28 8 -40 11 -18 5 -19 3 -10 -14 6 -12 11 -25 11
-31 0 -18 -51 -70 -73 -74 -12 -2 53 -5 144 -6 l167 -1 7 27 c4 17 2 29 -4 31
-6 2 -11 8 -11 14 0 6 6 8 14 5 16 -7 36 13 41 40 1 10 8 17 14 15 14 -3 15
25 1 33 -5 3 -10 20 -10 37 0 17 3 29 6 25 4 -3 14 1 23 10 11 12 13 17 3 21
-27 9 2 72 39 84 7 2 9 10 5 17 -5 7 -14 10 -22 7 -9 -3 -11 0 -7 11 9 22 40
53 54 53 7 0 22 11 35 26 27 29 32 59 8 50 -8 -3 -12 -2 -9 4 3 6 12 10 19 10
12 0 30 34 27 53 -1 4 8 23 18 43 11 20 17 42 14 50 -3 8 0 14 7 14 7 0 10 6
7 14 -3 8 1 20 9 27 22 18 47 77 46 110 0 16 4 29 9 29 6 0 8 9 4 19 -3 11 -1
22 5 26 8 5 8 11 -1 21 -9 11 -8 15 5 20 11 4 13 10 7 18 -12 15 -9 66 5 66 6
0 9 12 6 28 -2 18 2 35 13 45 9 9 13 22 9 29 -5 8 -2 9 9 5 20 -7 21 -3 7 23
-8 15 -7 18 3 14 10 -3 16 4 19 20 3 14 3 28 0 31 -3 3 -7 15 -8 27 -7 50 -11
60 -25 69 -10 6 -10 9 -1 9 6 0 12 12 12 28 0 15 7 36 15 46 8 10 12 23 9 28
-3 5 0 15 6 23 6 8 8 20 4 27 -6 10 -4 10 9 0 19 -16 58 -7 51 12 -3 8 4 16
17 19 14 4 20 11 16 21 -3 8 -2 18 3 21 6 4 10 -4 10 -17 0 -13 5 -30 10 -38
7 -11 10 -3 10 31 0 25 -6 51 -12 58 -10 11 -10 13 0 7 8 -5 12 1 12 18 0 15
-8 30 -21 37 -14 7 -19 17 -16 31 5 16 3 18 -6 9 -6 -6 -15 -11 -21 -11 -6 0
-6 4 1 11 8 8 7 18 -3 37 -21 40 -36 84 -38 111 -1 13 -12 32 -25 42 -14 12
-21 25 -17 35 3 8 3 27 0 40 -5 19 -11 23 -25 19 -11 -4 -19 -2 -19 4 0 6 5
11 11 11 7 0 -5 14 -26 30 -40 32 -52 35 -74 21z m199 -465 c0 -2 3 -13 6 -23
6 -15 4 -16 -7 -5 -18 17 -32 15 -25 -3 6 -16 -9 -21 -18 -6 -10 16 5 41 25
41 10 0 19 -2 19 -4z m-143 -78 c-3 -8 -6 -5 -6 6 -1 11 2 17 5 13 3 -3 4 -12
1 -19z m-162 -396 c-8 -2 -15 -8 -15 -14 0 -6 -3 -9 -6 -6 -3 4 0 16 6 28 10
18 14 20 21 9 6 -9 4 -15 -6 -17z"/>
<path d="M4340 1470 c-9 -6 -10 -10 -3 -10 6 0 15 5 18 10 8 12 4 12 -15 0z"/>
<path d="M4290 1452 c0 -12 19 -26 26 -19 2 2 -2 10 -11 17 -9 8 -15 8 -15 2z"/>
<path d="M4331 1324 c0 -11 3 -14 6 -6 3 7 2 16 -1 19 -3 4 -6 -2 -5 -13z"/>
<path d="M3385 421 c-3 -6 -4 -15 0 -21 3 -5 -1 -25 -9 -45 -12 -28 -28 -41
-78 -65 -35 -17 -72 -30 -82 -30 -10 0 -24 -8 -31 -17 -7 -9 -28 -23 -46 -29
l-34 -12 36 -1 c26 -1 69 16 151 60 111 58 138 82 138 123 0 19 -37 50 -45 37z"/>
<path d="M3645 200 c-3 -5 1 -10 9 -10 9 0 16 5 16 10 0 6 -4 10 -9 10 -6 0
-13 -4 -16 -10z"/>
<path d="M3049 173 c-13 -16 -12 -17 4 -4 16 13 21 21 13 21 -2 0 -10 -8 -17
-17z"/>
<path d="M3650 156 c0 -8 5 -18 10 -21 6 -3 10 3 10 14 0 12 -4 21 -10 21 -5
0 -10 -6 -10 -14z"/>
<path d="M3645 110 c3 -5 8 -10 11 -10 2 0 4 5 4 10 0 6 -5 10 -11 10 -5 0 -7
-4 -4 -10z"/>
<path d="M1268 8 c5 -5 16 -8 23 -6 8 3 3 7 -10 11 -17 4 -21 3 -13 -5z"/>
</g>
</svg>
